<mxfile host="app.diagrams.net" modified="2023-07-30T18:19:18.304Z" agent="Mozilla/5.0 (Windows NT 10.0; Win64; x64) AppleWebKit/537.36 (KHTML, like Gecko) Chrome/115.0.0.0 Safari/537.36 Edg/115.0.1901.188" etag="NyUVnoQuPb6_jo8XAZ3b" version="21.6.6" type="device">
  <diagram name="Page-1" id="Hz7f3OvZc7nV7xKDE3_j">
    <mxGraphModel dx="1266" dy="746" grid="1" gridSize="10" guides="1" tooltips="1" connect="1" arrows="1" fold="1" page="1" pageScale="1" pageWidth="850" pageHeight="1100" math="0" shadow="0">
      <root>
        <mxCell id="0" />
        <mxCell id="1" parent="0" />
        <mxCell id="sDltozqfGE9i9l2mXQyf-1" value="" style="shape=image;verticalLabelPosition=bottom;labelBackgroundColor=default;verticalAlign=top;aspect=fixed;imageAspect=0;image=data:image/png,iVBORw0KGgoAAAANSUhEUgAAAh4AAALSCAYAAACS6diFAAAAAXNSR0IArs4c6QAAIABJREFUeF7svX+Mn9V15388MRPj2Im948gLVIjSdO3sH3EXURLJICSoQrtCcstIsAq4QNAKzI94cEi6JQYCGJoANTa/HLpicWqoAGlokVCBqLCyAKnLIraOtN/Y29SxUAnrjUd2a8d2Bmf81fngO77z8Plxz/Pcz2ee597XR+KHx+fe557XOXPv+3N/PXN++7d/+2f/+I//eJbwgQAEIBBI4Atf+MKxn/70p3MDzTGDAAQgIL/927+95x//8R9/c46IHD9+/DhIIAABCAQTmDNnjnYcwfYYQgACENB+Q0Ra/0Z4kA8QgICJAMLDhAtjCECgpTgQHiQCBCBQkgDCoyQ4ikEgYwIIj4yDj+sQqEoA4VGVIOUhkB8BhEd+McdjCEQjgPCIhpKKIJANAYRHNqHGUQjEJ4DwiM+UGiGQOgGER0IR3rVrl1xxxRXyrW99S6688sqWZ+1+1m+X3377bTn//PPlrbfekpUrV/b7cdQ/iwQQHrMIP8KjJyYmWn3Fa6+9VtvfV/qTCIGuWRUIj5oFpEpz6iI8qvhA2WYRQHg0K17F1rpBXX9+zz33yB133FE7hxAetQtJ5QYhPCojrE8FIcLD2ezYsaPVcDcrUSxb/GUvlnvmmWda35Tcz7/61a/Kj370I/nKV74il19+uVx88cXTdfvfqvSZrmx9yNGSsgQQHmXJ1aPcvffeK/q7ftZZZ8mePXvk2WeflZGRkVbjXB+gguTOO+9s/cyJk+LvvfYn119/vTz88MNy6qmnTjvnfvd15lNFjV+n/2fth/SjM6X6ueSSS6bb0q0d9aBIK6wEEB5WYjW27yU8LrvsMrn11ltbHmgH8dBDD7U6Au1s9u3bN2OZxhce55xzTqvc6tWrW0sn2lmNj4/L888/36pLl3dUcLhOxy+7fPnylkApdjwsw9Q4kQxNQ3gYYNXM1BcFF1100SeWR4siQfuJq666qvWFYsmSJTN+7997771W+XZfKpy40fKvvvpqqw4nUl588UXZtm2b3H333a2f6TJxsZ9ydTvR47eDpdyaJVVgcxAegaCaYBYqPJ588slPfDvpNeOh/vuzHitWrJghPPx9Jb7wcN9inNA4cuTIDPHjfztqAmPaOJMAwqO5GdHtC4I/4+F+d32horOa/n6ybr/X+pybbrqp1V+88MILrdkT7T+2bt0qP/jBD+SMM86Qs88+Wx588MGWzbJly1pfhlSQ6H937tw5QxQVZ1GaG4F8W47wSCj2vYSHzjz4a7rquvvm8f7773ec8XCzFv/3//7fVsfw7rvvTncSbsajk/DQ6Vu/Q0F4JJRwJ24g5Mr0ZsbUn4nQ5ZXin4vLrWWFh+uXrr766tYmVl1G0f/qzMYTTzzRmuXYvXv39HKOo+m+3OhsrL9ZHeHRzHzzW43waH4Mpz1wv5C6JNLrVIu/70KnR88999yOwqM4a6HfQpyY6CU8mPFIKMHauMKMRzPjW9yz5XvhlktiCQ/3ZeNnP/tZ6zHf//73WzMdOvPqxIX/ZUZnPPxPt3bUcTNsMzNisK1GeAyWd1+f5n7B/U1ivkjQddlO+y2KezH0249OifrrufrN5Pd///dbdbjZj17Cgz0efQ35rFeO8Jj1EJRqQLt9Eu7LiG401f1abm+Fvx+juMfj3/7bfztjOaTTxnH3PLdptLjXw59x7bTHo1072ONRKvyzXgjhMeshiNuA4gkSrd3fyFn8puMfoXOdg5ZxO9ldWSdEnNDQJZeiKHGzLJ2+oej0arE9cb2ntkETQHgMmnj157X7guJq9TeOuyUOnZnQJRE9uVI8zeaWT/R3u9txXNfvjI6Otj3dos/3l4F7nWrhZFz1PJjNGhAes0mfZ0Og4QQQHg0PYJfmd7s/YzYuJkyXdH6eITzyizkeQyAaAYRHNJS1qwjhUbuQJNMghEcyocQRCAyeAMJj8Mx5IgSaTgDh0fQI0n4IzCIBhMcswufREGgoAYRHQwNHsyFQBwIIjzpEgTZAoFkEEB7NihethUCtCCA8ahUOGgOBRhBAeDQiTDQSAvUkgPCoZ1xoFQTqTGBaeCxatGj/gQMHFtW5sbQNAhCoF4FFixYdP3DgwJx6tYrWQAACdSawePHiA/v371+sHcdxffVCnRtL2yAAgdoRoN+oXUhoEARqT6DVbyA8ah8nGgiBWhJAeNQyLDQKArUmgPCodXhoHATqTQDhUe/40DoI1JEAwqOOUaFNEGgIAYRHQwJFMyFQIwIIjxoFg6ZAoGkEEB5NixjthcDsE0B4zH4MaAEEGksA4dHY0NFwCMwaAYTHrKHnwRBoPgGER/NjiAcQGDQBhMegifM8CCREAOGRUDBxBQIDIoDwGBBoHgOBFAkgPFKMKj5BoL8EEB795UvtEEiaAMIj6fDiHAT6QgDh0ResVAqBPAggPPKIM15CICYBhEdMmtQFgcwIIDwyCzjuQiACAYRHBIhUAYFcCSA8co08fkOgPAGER3l2lIRA9gQQHtmnAAAgYCaA8DAjowAEIOAIIDzIBQhAwEoA4WElhj0EIDBNAOFBMkAAAlYCCA8rMewhAAGEBzkAAQiUJoDwKI2OghCAADMe5AAEIGAlgPCwEsMeAhBgxoMcgAAEShNAeJRGR0EIQIAZD3IAAhCwEkB4WIlhDwEIMONBDkAAAqUJIDxKo6MgBCDAjAc5AAEIWAkgPKzEsIcABJjxIAcgAIHSBBAepdFREAIQYMaDHIAABKwEEB5WYthDAALMeJADEIBAaQIIj9LoKAgBCDDjQQ5AAAJWAggPK7EM7FeKyNdE5BIR+Q0R+bSI/EpE/llEXhORvxKRtzPggIu9CSA8ejPCAgIQmEkA4UFGTBNYISKPiYj+d2EXLgdFZIeI3HzivyDMlwDCI9/Y4zkEyhJAeJQll1i5PxaRH5bw6WoR+csS5SiSBgGERxpxxAsIDJIAwmOQtGv6LBUdW0Rkfon2HRaRNYiPEuTSKILwSCOOeAGBQRJAeAySdg2fpcsq/xChXb/DsksEis2rAuHRvJjRYgjMNgGEx2xHYJaf/6aInB+hDW+JyAUR6qGKZhFAeDQrXrQWAnUggPCoQxRmqQ16euWVHhtJQ5umG07/gNMuobiSsUN4JBNKHIHAwAggPAaGun4PelxEbozYrCdE5KaI9VFV/QkgPOofI1oIgboRQHjULSIDbM9PReS3Ij7vn0TkCxHro6r6E0B41D9GtBACdSOA8KhbRAbYnqMnLgeL9Ui9ZGxerMqopxEEEB6NCBONhECtCCA8ahWOwTZGgx/7Myd2hdRXawIIj1qHh8ZBoJYEEB61DMtgGsWMx2A4p/wUhEfK0cU3CPSHAMKjP1wbUSt7PBoRplo3EuFR6/DQOAjUkgDCo5ZhGUyjONUyGM4pPwXhkXJ08Q0C/SGA8OgP10bUyj0ejQhTrRuJ8Kh1eGgcBGpJAOFRy7AMrlHcXDo41ik+CeGRYlTxCQL9JYDw6C/f2tfOu1pqH6JaNxDhUevw0DgI1JIAwqOWYRlso3g77WB5p/Q0hEdK0cQXCAyGAMJjMJxr/xQVHz8s0cqrReQvS5SjSBoEEB5pxBEvIDBIAgiPQdKu+bN02eUxEdH/LuzSVn0h3A4RufnEf2vuFs3rIwGERx/hUjUEEiWA8Eg0sFXc0tMuXxORS0TkN05cq67Xof+ziLwmIn/FW2ir4E2qLMIjqXDiDAQGQgDhMRDMzX4Ig0uz49fP1pMb/aRL3RBIkwDCI824RvWKwSUqzqQqIzeSCifOQGAgBBAeA8Hc7IcwuDQ7fv1sPbnRT7rUDYE0CSA80oxrVK8YXKLiTKoyciOpcOIMBAZCAOExEMzNfgiDS7Pj18/Wkxv9pEvdEEiTAMIjzbhG9YrBJSrOpCojN5IKJ85AYCAEEB4DwdzshzC4NDt+/Ww9udFPutQNgTQJIDzSjGtUrxhcouJMqjJyI6lw4gwEBkIA4TEQzM1+CINLs+PXz9aTG/2kS90QSJMAwiPNuEb1isElKs6kKiM3kgonzkBgIAQQHgPB3OyHMLg0O379bD250U+61A2BNAkgPNKMa1SvGFyi4kyqMnIjqXDiDAQGQgDhMRDMzX4Ig0uz49fP1pMb/aRL3RBIkwDCI824RvWKwSUqzqQqIzeSCifOQGAgBBAeA8Hc7IcwuDQ7fv1sPbnRT7rUDYE0CSA80oxrVK8YXKLiTKoyciOpcOIMBAZCAOExEMzNfgiDS7Pj18/Wkxv9pEvdEEiTAMIjzbhG9YrBJSrOpCojN5IKJ85AYCAEEB4DwdzshzC4NDt+/Ww9udFPutQNgTQJIDzSjGtUrxhcouJMqjJyI6lw4gwEBkIA4TEQzM1+CINLs+PXz9aTG/2kS90QSJMAwiPNuEb1isElKs6kKiM3kgonzkBgIAQQHgPB3OyHMLg0O379bD250U+61A2BNAkgPNKMa1SvGFyi4kyqMnIjqXDiDAQGQgDhMRDMzX4Ig0uz49fP1pMb/aRL3RBIkwDCI824RvWKwSUqzqQqIzeSCifOQGAgBBAeA8Hc7IcwuDQ7fv1sPbnRT7rUDYE0CSA80oxrVK8YXKLiTKoyciOpcOIMBAZCAOExEMzNfgiDS7Pj18/Wkxv9pEvdEEiTAMIjzbhG9YrBJSrOpCojN5IKJ85AYCAEEB4DwdzshzC4NDt+/Ww9udFPutQNgTQJIDzSjGtUrxhcouJMqjJyI6lw4gwEBkIA4TEQzM1+CINLs+PXz9aTG/2kS90QSJMAwiPNuEb1isElKs6kKiM3kgonzkBgIAQQHgPB3OyHMLg0O379bD250U+61A2BNAkgPNKMa1SvGFyi4kyqMnIjqXDiDAQGQgDhMRDMzX4Ig0uz49fP1pMb/aRL3RBIkwDCI824RvWKwSUqzqQqIzeSCifOQGAgBBAeA8Hc7IcwuDQ7fv1sPbnRT7rUDYE0CSA80oxrVK8YXKLiTKoyciOpcOIMBAZCAOExEMzNfgiDS7Pj18/Wkxv9pEvdEEiTAMIjzbhG9YrBJSrOpCojN5IKJ85AYCAEEB4DwdzshzC4NDt+/Ww9udFPutQNgTQJIDzSjGtUrxhcouJMqjJyI6lw4gwEBkIA4TEQzM1+CINLs+PXz9aTG/2kS90QSJMAwiPNuEb1isElKs6kKiM3kgonzkBgIAQQHgPB3OyHMLg0O379bD250U+61A2BNAkgPNKMa1SvGFyi4kyqMnIjqXDiDAQGQgDhMRDMzX4Ig0uz49fP1pMb/aRL3RBIkwDCI824RvWKwSUqzqQqIzeSCifOQGAgBBAeA8Hc7IcwuDQ7fv1sPbnRT7rUDYE0CSA80oxrVK8YXKLiTKoyciOpcOIMBAZCAOExEMzNfgiDS7Pj18/Wkxv9pEvdEEiTAMIjzbhG9YrBJSrOpCojN5IKJ85AYCAEEB4DwdzshzC4NDt+/Ww9udFPutQNgTQJIDzSjGtUrxhcouJMqjJyI6lw4gwEBkIA4TEQzM1+CINLs+PXz9aTG/2kS90QSJMAwiPNuEb1isElKs6kKiM3kgonzkBgIAQQHgPB3OyHMLg0O379bD250U+61A2BNAkgPNKMa1SvGFyi4kyqMnIjqXDiDAQGQgDhMRDMzX4Ig0uz49fP1pMb/aRL3RBIkwDCI824VvLqmyJyj4jcLiKbRcQNLmtF5M9E5A4R+fNKT6BwKgQQHqlEEj8gMDgCCI/BsW7MkxaKyISIHBKRSRFZKiJ7RWRYRBaIyIiIHGyMNzS0nwQQHv2kS90QSJMAwiPNuFb2Smc2bhORuSdEhoqRYyLykIj8aeXaqSAVAgiPVCKJHxAYHAGEx+BYN+pJKjR+ISKf9lr9KxH5PLMdjYpjvxuL8Og3YeqHQHoEEB7pxTSaRzrrofs9ThGRj07s62C2IxreJCpCeCQRRpyAwEAJIDwGirtZD/NnPZjtaFbsBtVahMegSPMcCKRDAOGRTiz74onb68Hejr7gbXylCI/GhxAHIDBwAgiPgSNv1gN11uNpEbmWvR3NCtyAWovwGBBoHgOBhAggPCIFc9nQ0NDqxYsXjx48ePCsycnJeZHqpZrIBIaHh48uXLhwz/79+8enpqa2iciuyI/IqTqER7Vo029U4zew0vQbUVEjPKriXLBgwQ+OHTt27Zo1a+asWrXqlBUrVsiiRYuqVkv5PhE4cOCA7NixQ1566aWPtmzZcnzu3LlPHzp06IY+PS71ahEeJSNMv1ES3CwVo9+ICh7hUQHn6SMjI69feumlZ27atGk+YqMCyVkqqp3J2NjY4Zdffvn9iYmJi0Xk57PUlKY+FuFhjxz9hp1ZrUrQb1QOB8KjLMKRkZGfjI2NLV+/fn3ZKihXEwIbNmyQTZs27ZyYmPhiTZrUlGYgPIyRot8wAquxOf1G6eAgPMqg02nS0dHR1Vu3bp1fpjxl6kfgmmuuOTw+Pr6NZRdTbBAeBlz0GwZYDTGl3ygVKIRHCWzL5s2b9+MPP/xwmOWVEvRqWkSnT0877bTJo0ePfokNp8FBQngEoxL6jXBWjbGk3ygVKoSHFdvQ0NCGtWvXfnvjxo16oyefhAisW7fuo82bNz8wNTXF+llYXBEeYZyEfiMQVAPN6DfMQUN4WJHpGu34+PjyCy+80FoU+5oT2L59u4yOjrLXIzxOCI9AVvQbgaAaaEa/YQ4awsOKbHh4+MjevXvnscxiJVd/e502Xbp06dHJyclT69/aWrQQ4REYBvqNQFANNKPfMAcN4WFGJnL8+HHlxidFAnPmzFG3Wv/i05MAwqMnomkD+o1wVo2zpN8whQzhYcL1sTEdSAloTSlCB2KKFMIjHBf9RjirxlnSb5hChvAw4UJ4lMDVrCJ0IKZ4ITzCcSE8wlk1zpJ+wxQyhIcJF8KjBK5mFaEDMcUL4RGOC+ERzqpxlvQbppAhPEy4EB4lcDWrCB2IKV4Ij3BcCI9wVo2zpN8whQzhYcKF8CiBq1lF6EBM8UJ4hONCeISzapwl/YYpZAgPEy6ERwlczSpCB2KKF8IjHBfCI5xV4yzpN0whQ3iYcCE8SuBqVhE6EFO8EB7huBAe4awaZ0m/YQoZwsOEC+FRAlezitCBmOKF8AjHhfAIZ9U4S/oNU8gQHiZcCI8SuJpVhA7EFC+ERziutsLj7bfflvPPP1/uueceueOOO6Zrm5iYkCuvvLL152effVZGRkbCn3TC8t5775Wzzz57uh5zBX0usGvXLvnud78rjz32WCn/YjdPY6HMyvCm3zBFA+FhwoXwKIGrWUXoQEzxQniE4+ooPFR0/Jt/829mDMA6CLb7efjjpDWI1ll4WHwZhC3CYxCUW89AeJRAzZRpCWhNKYLwMEUK4RGOq6Pw2LZtm3z2s5+VVatWycqVK1s1qmhYunSp/Pf//t+nBYn+7M4772z9/TPPPDM9k+FmTfTnl1xySesb+6uvvipXXXXVtO1ZZ53VEjJ79+6Vr3zlK/Lwww/Liy++OG2zYsUKef755+XMM8+UW2+9VfT9I/rnt956a7pNzlX/eddff32rLv1ouXPOOUeeeOIJ2bFjx4w2uhmc1157bbqN+/btmzHj0a3eM844Y9p3f3ZIZ02uuOKK1vOc7zo7dOTIkVZ7nnzyyU/w8kPml9d6tQ1uxqNde049tf1rnOg3wn8REB4mVtPGCI9y3BpRig7EFCaERziursJDB2wVBbrcooP0d77zHVm9enVLdOg/KiRUoOigqAO2DraPP/64LF++XG6++ebWAL5s2bLW3+tHl2n8GQ8dRG+66aaWmFC74rd7tdXPbbfd1hqwdaD3l36cm26g1mdrm52tK7dnz57pNn7jG9+QRx55ZFrMqD8qrLSNu3fvlssvv3xaePg+tatXn68C57333pv2Y8mSJS0/tZ1ar/rwwQcfTIsqfYbP87777puxpOPEkLbL8XLCQ9tTbH8nJto2+o3wXwSEh4kVwqMcrmaVogMxxQvhEY6rq/C44YYb5Pvf/35LZOzcuVPeeOONGQOzziL4yyZOKNx4440zhIffnKLw6LZ/wYkBJyAuuOCCtntDdGBWAaQiQL/9OwHz1FNPtQZ+v5x7/rnnntt2L4e/x0N9DqlXxYITWioOfJ/8+lSoOeHRKUTFPSbF8m+++eYMP/32Feuk3wj/RUB4mFghPMrhalYpOhBTvBAe4bi6Cg/9Nq7C47rrrpMXXnihJTLcgP3QQw99YlB3QkG/0fvLBW7pQ0VBUXj4A2dxKULd0KUGJzzc7ETRPX2uPyC7wdq10S/nnq/LPO1ET7eBvlO9ReGhG3P9j1sy0lkdf2mq05JRN+Hilqpc/f5SDsIjPPHbWLLHowQ+llpKQGtKEYSHKVIIj3BcXYWH23Px//7f/5N33nmnNUOgH3fqo9OMR3E5xBck3YRHUUAUZzw6CY/QGQ8nbHQGJMaMh2tPUXh0m4VwofHLqCBxn14zHr1mTPzQ02+E/yIw42FiVW3Go1Pyl2tCPUu5ten169fLhg0bWmvUbrNc1Ra7by/6jVA/1157regar98xX3TRRaJrzJYOg28ulSKD8AjH11N46P4F/QbvZi3ef//96fzutMfD/x3QTZXd9nj4g7QvPA4fPtxaVtHf1V4zHr32eCgOFVHadrdHorgXwz17zZo18r3vfa+1vNRrj0c74dGuXrcPxhdqrl8q7vHwxVG3PR5u9sTtH2m3wRThEf6LgPAwsUJ49MLlCw/dVKYiwf+G0at8p7/XDuKuu+76RH3+NxbtaJzw0HrcHQjWZ9KBmIghPE7i+qaI/IWIHOxAsKfwcALAbXYsfiPvdKpFB3K3LOAvtbif6wkYXe7whUfxlImKgFdeeUXuv/9+uf3227t+aQg9feIvb7Q7fWI51dJOeGjf4tfrL7P4/mk82i216M/98hs3bmz92QmUdqeFOt2nQr9h7zfmOAViKpqvcamlluKMh3YiBw8elB/96Eeto2B+h+EnvK67OqWt34iKR+LctyQNh19Hp1/I4tqu/+1Kv6HoR3+JipfodCrnq3+10c5NOwnt7C677LLWRjl3XPDBBx/seuTNdQ7adteWqamp1g77H/7wh622vf766601cH2G/21Py+oOf+3M9FN2poUOxPSLjfA4ieuwiHxKRB448U9RgJTqN0zRmEVj1z/EnOWcRXfMj6bfMCFjj4cJ18fGpTqQdsLDP7rlH49zR8TcsTJ9aPEomVP77Y58FadL9Tm6S17Xg91ueHfMzD1LB3HXhnaDdqdyvQZ4J6LcvQN+Pf7/+8f91F+/LX6n5pgUhUeZmx3bxZ4OxPQbgfA4ietWEdmguv3EPw8VBEipfsMUjVk0Rnho2Fux59ObAMKjN6NPWJTqQNoJD61ZBYD/S6s/Kx4rc3/W2Q1/F3Zxg5jb+BUyXarP8Z+rwsOJmF7LI5ZOpnhfgJs+1pmbW265ZfoMfre2IDxKZOlgiiA8ZnLW6TZ3t/mRggD51+PHFRefFAnwhcUUVYSHCVfkGQ93Lt8fWHVzZKfz4yo8ihvEOh350qbqbIZ/U6DOCvhLMM53XaYoblIrculULmTGw29zUXho+/yPzowUd8HPgvAokRYUgUCLwJSIDHksJkXkRRH5TwiPdDME4WGKLcLDhGsAwqPXjEdReISc4CjOhLhLfoqzDJ1e2FTc/V1lxsPNgDz66KOtK5DdjYt+HIqb6mZBeDBlGvaLwYwHMx5hmZK4FcLDFGCEhwnXAISHbpDstsejOHvgL4+4K4N1+Ub3ebhB3e3xKN5K6PZf9JrxKAoPv1zIjIceEXQbRzvt8fCP6RVnXxAeJbJ0MEUQHic5j4nIfbnu8RhMutX3KQgPU2wQHiZcAxAeOpC7gV2Ph+mVyLrE4jaXFi/M6XTkK+Tnus9CP/4tiZ1eUV08aePK9Tq2quW0Tv0899xzM07edHqREzMeJbJydoogPE5yz/pUS0j6+f3an/zJn8j27duDju+G1D3bNggPUwQQHiZcFYRHiee0ivgzBGXrmM1yxZsOZ7MtIc+mAwmhNG2D8DiJq9Q9HibaDTf2LzdzrliWbevsPv2GKToIDxOuAQiP4iZO/26OEm2d9SIIj1kPQT8bgPAIp1vqNFx49f2zdDOQ5513nqxbt078i7r0qd0uFDtw4EDrjbi6n8vNsOp/9bI/nb0NPYHXP+/i1IzwMHFEeJhwDUB4lGgPRSISoAMxwUR4hONqtPDQe3VGR0dbx9/9Y/z+1ehnnnmm3Hrrra0L/9x+Mv9V8v57ZKxH/8Mxz44l/YaJO8LDhAvhUQJXs4rQgZjihfAIx9Vo4eFvYvfvJHr33XfbHv93MxnuBJ1iQniEJ0vilgiPEgFubAdSwtfsiiA8TCFHeITjamy/UdzsXRQe7e4Seuqpp1r70/wr1BEe4cmSuCXCo0SAG9uBlPA1uyIID1PIER7huBrbb7h3J+mLH4uvatAZj3Z3CbXbNIrwCE+WxC0RHiUC3NgOpISv2RVBeJhCjvAIx9XYfsNteP/Wt77VumOo0x4P//Xx7TaNIjzCkyVxS4RHiQA3tgMp4Wt2RRAeppAjPMJxNbbfcEstn/vc5+TJJ5+c8YZpdb/dnUHz589vbTRlqSU8QTKyRHiUCHZjO5ASvmZXBOFhCjnCIxxXY/uN4h6PcJfzsaTfMMUa4WHC9bFxYzuQEr5mV4QOxBRyhEc4rsb2GwiP3kGm3+jNyLNAeJhwITxK4GpWEToQU7wQHuG4Gis8wl3M15J+wxR7hIcJF8KjBK5mFaEDMcUL4RGOC+ERzqpxlvQbppAhPEy4EB4lcDWrCB2IKV4Ij3BcCI9wVo2zpN8whQzhYcKF8CiBq1lF6EBM8UJ4hONCeISzapwl/YYpZAgPEy6ERwlczSpCB2KKF8IjHBfCI5xV4yzpN0whQ3iYcCE8SuBqVhE6EFO8EB7huBAe4awaZ0m/YQoZwsOEC+FRAlezitCBmOKF8AjHhfAIZ9W4w5wPAAAgAElEQVQ4S/oNU8gQHiZcCI8SuJpVhA7EFC+ERzguhEc4q8ZZ0m+YQobwMOESkeHh4SN79+6dt2jRImtR7GtO4MCBA7J06dKjk5OTp9a8qXVpHsIjMBL0G4GgGmhGv2EOGsLDimxkZOQn4+Pjyy+88EJrUexrTmD79u0yOjq6c2Ji4os1b2pdmofwCIwE/UYgqAaa0W+Yg4bwsCIbGhrasHbt2m9v3LjxFGtZ7OtNYN26dR9t3rz5gampqfX1bmltWofwCAwF/UYgqAaa0W+Yg4bwMCMTWTZv3rwff/jhh8Mst5SgV9MiOl162mmnTR49evRLIrKrps2sW7MQHuERod8IZ9UYS/qNUqFCeJTBtmDBgh+Mjo6u3rp16/wy5SlTPwLXXHPN4fHx8W2HDh26oX6tq22LEB6G0NBvGGA1xJR+o1SgEB6lsImIrtmOjY0tX7+eWfmyDOtSbsOGDbJp0yb2dtgDgvAwMqPfMAKrsTn9RungIDxKoxM5fWRk5PVLL730zE2bNs1n2aUCyVkqqtOkY2Njh19++eX3JyYmLhaRn89SU5r6WISHPXL0G3ZmtSpBv1E5HAiPqgh1+vTYsWPXrlmzZs6qVatOWbFihSBCqlLtX3ntNHbs2CEvvfTSR1u2bDk+d+7cp1leKc0b4VESHf1GSXCzVIx+Iyp4hEcknMuGhoZWL168ePTgwYNnTU5OzotUL9VEJjA8PHx04cKFe/bv3z8+NTW1jY2klQAjPCrhE/qNavwGVpp+IypqhEdUnFQGgbwIIDzyirfFW3LDQisvW4RHXvHGWwhEJcDgEhVnUpWRG0mFM6ozCI+oOKkMAnkRYHDJK94Wb8kNC628bBEeecUbbyEQlQCDS1ScSVVGbiQVzqjOIDyi4qQyCORFgMElr3hbvCU3LLTyskV45BVvvIVAVAIMLlFxJlUZuZFUOKM6g/CIipPKIJAXAQaXvOJt8ZbcsNDKyxbhkVe88RYCUQkwuETFmVRl5EZS4YzqDMIjKk4qg0BeBBhc8oq3xVtyw0IrL1uER17xxlsIRCXA4BIVZ1KVkRtJhTOqMwiPqDipDAJ5EWBwySveFm/JDQutvGwRHnnFG28hEJUAg0tUnElVRm4kFc6oziA8ouKkMgjkRYDBJa94W7wlNyy08rJFeOQVb7yFQFQCDC5RcSZVGbmRVDijOoPwiIqTyiCQFwEGl7zibfGW3LDQyssW4ZFXvPEWAlEJMLhExZlUZeRGUuGM6gzCIypOKoNAXgQYXPKKt8VbcsNCKy9bhEde8cZbCEQlwOASFWdSlZEbSYUzqjMIj6g4qQwCeRFgcMkr3hZvyQ0LrbxsER55xRtvIRCVAINLVJxJVUZuJBXOqM4gPKLipDII5EWAwSWveFu8JTcstPKyRXjkFW+8hUBUAgwuUXEmVRm5kVQ4ozqD8IiKk8ogkBcBBpe84m3xltyw0MrLFuGRV7zxFgJRCTC4RMWZVGXkRlLhjOoMwiMqTiqDQF4EGFzyirfFW3LDQisvW4RHXvHGWwhEJcDgEhVnUpWRG0mFM6ozCI+oOKkMAnkRYHDJK94Wb8kNC628bBEeecUbbyEQlQCDS1ScSVVGbiQVzqjOIDyi4qQyCORFgMElr3hbvCU3LLTyskV45BXvUt7+rYj8bqmSFEqdwBIR2Ze6k/hXisBuEflyqZIUSp0AwiP1CEfwT5Pk8xHqoYr0CPyC3EgvqBE9QpRGhJlQVQiPhILZL1eYMu0X2ebXS240P4Z4AIFBE0B4DJp4A5/H4NLAoA2oyeTGgEDzGAgkRADhkVAw++UKg0u/yDa/XnKj+THEAwgMmgDCY9DEG/g8BpcGBm1ATSY3BgSax0AgIQIIj4SC2S9XGFz6Rbb59ZIbzY8hHkBg0AQQHoMm3sDnMbg0MGgDajK5MSDQPAYCCRFAeCQUzH65wuDSL7LNr5fcaH4M8QACgyaA8Bg08QY+j8GlgUEbUJPJjQGB5jEQSIgAwiOhYPbLFQaXfpFtfr3kRvNjiAcQGDQBhMegiTfweQwuDQzagJpMbgwINI+BQEIEEB4JBbNfrjC49Its8+slN5ofQzyAwKAJIDwGTbyBz2NwaWDQBtRkcmNAoHkMBBIigPBIKJj9coXBpV9km18vudH8GOIBBAZNAOExaOINfB6DSwODNqAmkxsDAs1jIJAQAYRHQsHslysMLv0i2/x6yY3mxxAPIDBoAgiPQRNvwPO+KSL3iMjtIrJZRNzgslZE/kxE7hCRP2+AHzSx/wQQHv1nzBMgkBoBhEdqEY3gz0IRmRCRQyIyKSJLRWSviAyLyAIRGRGRgxGeQxXNJ4DwaH4M8QACgyaA8Bg08YY8T2c2bhORuSdEhoqRYyLykIj8aUN8oJn9J4Dw6D9jngCB1AggPFKLaCR/VGj8QkQ+7dX3KxH5PLMdkQinUQ3CI4044gUEBkkA4TFI2g17ls566H6PU0TkoxP7OpjtaFgQ+9xchEefAVM9BBIkgPBIMKixXPJnPZjtiEU1rXoQHmnFE28gMAgCCI9BUG7wM9xeD/Z2NDiIfWw6wqOPcKkaAokSQHgkGthYbumsx9Mici17O2IhTaoehEdS4cQZCAyEAMIjEuZlQ0NDqxcvXjx68ODBsyYnJ+dFqpdqIhMYHh4+unDhwj379+8fn5qa2iYiuyI/IqfqEB7Vok2/UY3fwErTb0RFjfCoinPBggU/OHbs2LVr1qyZs2rVqlNWrFghixYtqlot5ftE4MCBA7Jjxw556aWXPtqyZcvxuXPnPn3o0KEb+vS41KtFeJSMMP1GSXCzVIx+Iyp4hEcFnKePjIy8fumll565adOm+YiNCiRnqah2JmNjY4dffvnl9ycmJi4WkZ/PUlOa+liEhz1y9Bt2ZrUqQb9RORwIj7IIR0ZGfjI2NrZ8/fr1ZaugXE0IbNiwQTZt2rRzYmLiizVpUlOagfAwRop+wwisxub0G6WDg/Aog06nSUdHR1dv3bp1fpnylKkfgWuuuebw+Pj4NpZdTLFBeBhw0W8YYDXElH6jVKAQHiWwLZs3b96PP/zww2GWV0rQq2kRnT497bTTJo8ePfolNpwGBwnhEYxK6DfCWTXGkn6jVKgQHlZsQ0NDG9auXfvtjRs36o2efBIisG7duo82b978wNTUFOtnYXFFeIRxEvqNQFANNKPfMAcN4WFFpmu04+Pjyy+88EJrUexrTmD79u0yOjrKXo/wOCE8AlnRbwSCaqAZ/YY5aAgPK7Lh4eEje/funccyi5Vc/e112nTp0qVHJycnT61/a2vRQoRHYBjoNwJBNdCMfsMcNISHGZnI8ePHlRufFAnMmTNH3Wr9i09PAgiPnoimDeg3wlk1zpJ+wxQyhIcJ18fGdCAloDWlCB2IKVIIj3Bc9BvhrBpnSb9hChnCw4QL4VECV7OK0IGY4oXwCMfVd+ExMTEhV155pbz22mvTrdKblJ9//nlZtmxZeEsHaPnss8/Km2++KQ8//LCcemr7FU716+abb5bvfve7tfWDfsOUNAgPEy6ERwlczSpCB2KKF8IjHNfAhMcdd9whK1eubLUsZGAPdyG+ZUj7EB7xuc9yjQiPEgHoewdSok0UiUQA4WECifAIx9X3fsPNePjCY9euXa2Zgscee0z27ds3/f8jIyPy9ttvy7Zt21qzDfq59dZb5cknn2z9/zPPPNOaPdGP1nHFFVe03nF0/fXXT89OqGi46qqrWjZuZuXMM89s1aMbLnWm5a233poWQQ6VPvf8889vlfnqV78q//qv/9qq8/DhwzNmbO655x657bbbpttVfIZrq/+Me++9V+68887Wo7S8shjEh37DRBnhYcLFjEcJXM0qQgdiihfCIxzXrAgPFQe7d+9uDcC+CCkKjxdffHHaTgXMd77zHbnvvvta3vnLHDqwn3322XLWWWeJ/r/Wr3Xp/+vHCYUzzjij7aDvRMzjjz8u55xzTktU6Of++++X22+/XS644IKW+FC7b3zjG/LII4/IkiVLPtGGDz74oCVW3nvvPbnppptaIkeFlS+k7rrrLrnuuusGsjxDvxH+i6D7JHUDv+7gpwMJ59b3DiS8KVjGJkAHYiJKvxGOq+/9Rrs9Hpdccsm0OAgVHr5L/qxIpz0Yau8EjhMeTkAU8RTr61S/v7ziCw83o7J69erWTMqRI0da4kWfp2LICY9ubQ0PWbgl/UY4K4SHidW0cd87kHLNolQMAnQgJooIj3Bcfe83Oi21uJkDbapbdinOeOhA7S9TuOWLTnsw3IDvlju0bn9pxAmDIp5ifb7w0NkLXYJxH7e04gsP/X+dEfGXk9wsjP7cX/7xl4vCw1TOkn7DxI0ZDxOuj4373oGUaBNFIhGgAzGBRHiE4+p7v9FOeDiBoEJAB21feHQSFf5sg7984c8iFMsWZzw6CY9OMx4qJHRZxAmKMjMebk+KhsT32220DQ+V3ZJ+w8QM4WHCFUl4FKc8S7ShcUW0w/HXhDs54H97mQ0n6UBM1BEe4bhmRXj4eyW0qbpJtLi/QvdKPPTQQ629Gzp4+3s8VHi4GRM9kuv2cqitOwbrNoXqAO+WWjoJD18c+Xs8isJDhcyDDz7Y2rsRusfj3Xffnd6nosKDPR7hyTlgS4RHCeCVOxCEx0hH7AiPEhk5e0UQHuHsK/cbvR7Vbo+HlvFPfbilCF3GuPHGG1ubM9udKPHLuFMoWpc71eKfQNF9JGvWrJFXXnllepNoJ+Ghdfj16VLNT3/6U7n77rtFN7i6UzL6c22b1uMEyt///d+3hIjb51E81VJc/mGppVfGzNrfIzxKoK/cgbQ74va5z31u+ihbp45Cj54tXLhw+luFf2TN/XJajpj5HYDfQenPdb1279698pWvfOUTl/t0Kldk6R/D0/q0nNsF3+4onn5jcR2P6zTadXo65ev/3N9AVyKeM4ow42EiiPAIx1W53wh/FJaDJkC/YSKO8DDh+ti4cgdSFB46/fmtb32rNc2p3/jdUbH3339/xpEy/Xt/OtM/suamQHXKUgflXkfM1BF/CtVfs/WPqBVvPPSnbvXvuq0Ta3v1G4vzywmPnTt3tj2Kp233ZzzaHb1Tn/Wbmn/ET9ugH3+Nt0RcW0XoQEzkEB7huCr3G+GPwnLQBOg3TMQRHiZcfRIevgDwN1/5Z+v10Z2OrBU3lfkbq7RcyBGz4u7ykP0YWnen43DF5aRuy0v+XQO+8Gi3EU3//tFHH21dEtSPK5TpQEy/EQiPcFwIj3BWjbOk3zCFDOFhwtUn4dHpiJtu+NKPu32v087xTmu7brmi0xEz//icPset3+qMRzex0qmcv+u9uJnUFx7z58+fcUuiPtvdMlg8Gue/x6HdTFHxNsUS8ZxRhA7ERBDhEY4L4RHOqnGW9BumkCE8TLgGLDx6zXi4DVyh7zIozoT4sxrFGY9OwqMoKMrMeLz66qszXgxlnfFw+0Rc7PzyJeKJ8CgPDeERzg7hEc6qcZYID1PIEB4mXAMWHr32ePg7x/09Hv7eiD179rQ9YqbH5JzwcDMQ6p67hjhEeBTL+TMe/o2CxT0evvDwj+KF7vG4/PLLP3EfgbadPR4lsrlaEYRHOL+shUc/79UIOarfz+drCiA8wn8RuLnUxGrauHIHEvriJh3I3TKJntzQfw4dOtT2rHyno2QhP9ejdXqc7bnnnmu9TEo3f3YSHn59xXJ6G6L/8U+1bNy4sfX+Bff+B/f6bv8onooed6Su16kWf/nIf3FVuZCeLEUHYiKI8DiJ65si8hcicrADwcr9hikyNTPu58CP8KhZsHs3hxmP3ow+YTErHUhxBqFEuykSQADhEQDppAnC4ySLwyLyKRF54MQ/RQESvd9wX2DOO+88Wbdu3fQbYt1JtHZH0bW5xbfH6s/cVeX+0fTilxZ3zN89t9cVAFpv8Y2ybpbW/1LS7Zmd7uLodlS/m9/d7hcxZX7BmH7DRA/hYcL1sXH0DqRTG4r3ZQzyNc8luCRRhA7EFEaEx0lc+prVDTrrfuIf3RmuIsQJkOj9hht8R0dHWxvQ/aPt/jKtu3BLj6IX3x5b3B/mH033j/b7R+zV5U5XAKhdt7fW6sC/fPnyGe9b8Z/T6S25/myq20zf7qi+f9NqO78RHqbf734ZIzxKkI3egZRoA0X6RADhYQKL8JiJa5+IuPXGIwUB8q/HjyuueJ/inTq+iNDL+PwTYW4TePH18502pheXRvwZ13PPPXfGHUDd3mDb7iSeEvDFib/0rPu/du/ePX2Srx2tbkf1ixvXi34jPOLlX4WaEB4l4CE8SkBrSpETwqMpzaWd9SMwJSJDXrMmReRFEflP/RAe/lH8ovBwtwC7tuiSxlNPPdUa9P0B2F+2KF6J3u4tsCo8Ol0BoM/SpZxub61VG/8ttPpntyTj3gej9/Tox7/F2fnR7ai+Co9Qv2OmDl9YTDQRHiZcHxsjPEpAa0oROhBTpJjxqNGMhz8D4r8wzW9ir02ene4KKs54dBIeulTiz7R0mvEIudSw02xMrxmPdjMmvfw2ZX0bY/oNE0GEhwkXwqMErmYVoQMxxQvhcRLXmIjcNxt7PNzrFjrt8XCzCPoqBrfU4m/y9EVE6B6PEOHR6a21xT0e+kwVIvrfJ554ou1bcv09Ht2O6rd7m247v01ZHmBMvxEA6aQJwsOEC+ERjKupb+ClAwkOcWv278RAayqUqPGsnWpxp0uKL0ts9yJFd/eOv9TS6Wh6r1MtevReBYG/xyP0rbX+8o6/zFK8hbndUovmT6ej+q49xVM67fyOmYf0GyaaCA8TLoRHMC6ERzCqJhsiPE5Gb+D3eDT1d6zJCd+p7QgPU1QRHiZcsyw83DeLz372s/Lggw+2LhRz14d3+3aiL6HTj/5yuOlMt3nLP6Lb6Wy9Ple/3ehHLxnr9g3F1VfsFAf9evsScZ1mxLf4YHoIj2BU8feGITzC4ffbEuFhIozwMOGqgfDQKUR3qY5/Tbr//zrI33TTTfL888+3Wqxn7h9//HFZuXLljGlR/bu77rpLrrvuOlmyZEnrbL1/Nl7XRt0V6vpcnfY855xzWrvW/TsBLrjgglZZf3Ob1u3WgTudre/n6+1LxBXhYYeG8Ahnxqb0cFaNs0R4mEKG8DDhqoHwaHf+XWcZbrnlltbZdxUX/g5uFRQ64/HII4+IbjKzvNTNlfPf66JrqJ1eyubvQveFR6ez9dpevdCoH6+3LxFXhIcdGsIjnBnCI5xV4ywRHqaQITxMuGogPPxjaG6q1QmP1157bYY7OjNSPHOvBv5mMv+dKL6o8UWECg//ub7wKN6u6pZhisKj3dl6rUfr1hmZ2K+3LxFXhIcdGsIjnBnCI5xV4ywRHqaQITxMuGogPIqvstc/P/roo6J7NtrNHHRbBy7OjPhH5Pxlk07CQ5dKdInFzbR0m/HodRuhE0QhdiViFlyEDiQYlRoiPMJxITzCWTXOkn7DFDKEhwlXDYSH22uhSyqd9ni4TaK6r0OXWorn9N3grsIjdI9HuxmPovDQGQzd9Or2lrTb4+HfKbBmzRr53ve+19q46pZwFHGM19uXiCszHnZoCI9wZrMuPPp9iVY4io8tre0Jse906Zi1bVZ7hIeJGMLDhKsGwsM/XeK/Dr54qsUtoRRnPDrZqWvdTrV0Wmrxl230mmR9SZRuUC0KnnZ3Cjix4ZZhYr7evkRcER52aAiPcGazLjzCmzoYyxAhYW0JwsNKbFbsER4lsM9aB9LtZUwl/KBIGwJ8czGlBcIjHNd0v1EccIuDpc5kFo+7tzueXvwy4AR88VX0Bw4caM1Cvv766/LCCy9Mv6el0xeNoktljtkX67C+qj7k8rMiJ/fmXf0CVGTg3h3jLiRzPM877zxZt25dy15niLVO3SvnXzNQ3MfW7lIz+o3wXwS3RKuvcaYDCeeG8Ahn1ThLOhBTyOg3wnEFCQ9/P5VW7ZZC9f87XVPe61X0evRd92H5gsddW97u+Pypp5467ZW7SdTt4/JfYa/PbXfMXm39j79fLORV9UUh5q5xv+yyy1pH+bXN+nHCy+ekM60333zz9H63XtcMuOvm1W58fHx6mdid6NO6/VOB/rX0Pif6jfBfBISHidW08awJj3LNpZSFAB2IhRZfWAy0zMLDH9h6zXj47Si+mM3dsxO6mVz3YblPtzfB7ty5c8br7Tsdsy8O1r1eVd9pucRvvy88ikLJCQ93N1HINQN+27st13SadabfMPwmnJjoYMbDxCz+DYS2x2PdTwJ0ICa6zHiE4woSHjrotzvu3k14aBN6vYq+eL+Plul0fL4oPDq9wr7bMfuiELK+qt5f3nF7v5yf7j0z7Tj5osEJj5BrBroJD39JR9vQbi8a/Ub4LwIzHiZWzHiUw9WsUnQgpnghPMJxdRQe/lKEP+h3m6HwZxFCXkXf7mLBTsfni8Kj0yvsi9/+u814VHlVfXEGx3/BneIvLiH5Mx7+sosfqqKQ6yQ8ipcnMuMRnvBdLNlcWgIjSy0loDWlCMLDFCmERziuTwgPt/fCP4b+7rvvSrvj7voY9+oD99oC/Zm+0sAXHp1eRV8UHmX3ePivsNellk6n3YqDvL9Pwu0Tuf/+++X222+f3uzqyrQTBfp3/h6PPXv2tOXUbY9H6DUDxcsT3cyQe8Ot484ej/DkL1giPEqgQ3iUgNaUIggPU6QQHuG4ZvQbxde6v/POO60NkW7zpTuF4Y7F62Pc0oKewNA7dHRzpwqP0FfRF0/TlDnV4r8gMnTGQ9seckrFR+kvo7RbanHiq8jJ+fj3f//3rY2inXiGznj45dX3u+++u/WiTHf3kGsz/Ub4LwJLLSZW08YIj3LcGlGKDsQUJoRHOC76jXBWjbOk3zCFjBkPE66PjelASkBrShE6EFOkEB7huOg3wlk1zpJ+wxQyhIcJF8KjBK5mFaEDMcUL4RGOC+ERzqpxlvQbppAhPEy4RGR4ePjI3r175y1atMhaFPuaE9AbHpcuXXp0cnLy5A1KNW/zLDcP4REYAPqNQFANNKPfMAcN4WFFNjIy8pPx8fHlF154obUo9jUnsH37dhkdHd05MTHxxZo3tS7NQ3gERoJ+IxBUA83oN8xBQ3hYkQ0NDW1Yu3bttzdu3HiKtSz29Sawbt26jzZv3vzA1NTU+nq3tDatQ3gEhoJ+IxBUA83oN8xBQ3iYkYksmzdv3o8//PDDYZZbStCraRGdLj3ttNMmjx49+iV9UW9Nm1m3ZiE8wiNCvxHOqjGW9BulQoXwKINtwYIFPxgdHV29devW+WXKU6Z+BK655prD4+Pj2w4dOnRD/VpX2xYhPAyhod8wwGqIKf1GqUAhPEphExFdsx0bG1u+fj2z8mUZ1qXchg0bZNOmTeztsAcE4WFkRr9hBFZjc/qN0sFBeJRGJ3L6yMjI65deeumZmzZtms+ySwWSs1RUp0nHxsYOv/zyy+9PTExcLCI/n6WmNPWxCA975Og37MxqVYJ+o3I4EB5VEer06bFjx65ds2bNnFWrVp2i1+oiQqpS7V957TR27NghL7300kdbtmw5Pnfu3KdZXinNG+FREh39Rklws1SMfiMqeIRHJJzLhoaGVi9evHj04MGDZ01OTs6LVC/VRCYwPDx8dOHChXv2798/PjU1tY2NpJUAIzwq4RP6jWr8BlaafiMqaoRHVJxUBoG8CCA88oq3xVtyw0IrL1uER17xxlsIRCXA4BIVZ1KVkRtJhTOqMwiPqDipDAJ5EWBwySveFm/JDQutvGwRHnnFG28hEJUAg0tUnElVRm4kFc6oziA8ouKkMgjkRYDBJa94W7wlNyy08rJFeOQVb7yFQFQCDC5RcSZVGbmRVDijOoPwiIqTyiCQFwEGl7zibfGW3LDQyssW4ZFXvPEWAlEJMLhExZlUZeRGUuGM6gzCIypOKoNAXgQYXPKKt8VbcsNCKy9bhEde8cZbCEQlwOASFWdSlZEbSYUzqjMIj6g4qQwCeRFgcMkr3hZvyQ0LrbxsER55xRtvIRCVAINLVJxJVUZuJBXOqM4gPKLipDII5EWAwSWveFu8JTcstPKyRXjkFW+8hUBUAgwuUXEmVRm5kVQ4ozqD8IiKk8ogkBcBBpe84m3xltyw0MrLFuGRV7zxFgJRCTC4RMWZVGXkRlLhjOoMwiMqTiqDQF4EGFzyirfFW3LDQisvW4RHXvHGWwhEJcDgEhVnUpWRG0mFM6ozCI+oOKkMAnkRYHDJK94Wb8kNC628bBEeecUbbyEQlQCDS1ScSVVGbiQVzqjOIDyi4qQyCORFgMElr3hbvCU3LLTyskV45BVvvIVAVAIMLlFxJlUZuZFUOKM6g/CIipPKIJAXAQaXvOJt8ZbcsNDKyxbhkVe88RYCUQkwuETFmVRl5EZS4YzqDMIjKs40K/tbEfndNF3Dq4oElojIvop1UDxNArtF5MtpuoZXFQkgPCoCzKG4Jsnnc3AUH80EfkFumJnlVABRmlO0w31FeISzytaSKdNsQ9/TcXKjJyIMIACBAgGEBynRkwCDS09E2RqQG9mGHschUJoAwqM0unwKMrjkE2urp+SGlRj2EIAAwoMc6EmAwaUnomwNyI1sQ4/jEChNAOFRGl0+BRlc8om11VNyw0oMewhAAOFBDvQkwODSE1G2BuRGtqHHcQiUJoDwKI0un4IMLvnE2uopuWElhj0EIIDwIAd6EmBw6YkoWwNyI9vQ4zgEShNAeJRGl09BBpd8Ym31lNywEsMeAhBAeJADPQkwuPRElK0BuZFt6HEcAqUJIDxKo8unIINLPrG2ekpuWIlhDwEIIDzIgZ4EGFx6IsrWgNzINvQ4DoHSBBAepdHlU5DBJZ9YWz0lN6zEsIcABBAe5EBPAgwuPRFla0BuZBt6HIdAaQIIj9Lo8inI4JJPrK2ekhtWYthDAAIID3KgJwEGl56IsjUgN7INPY5DoDQBhEdpdH19TXMAACAASURBVPkUZHDJJ9ZWT8kNKzHsIQABhAc50JMAg0tPRNkakBvZhh7HIVCaAMKjNLp8CjK45BNrq6fkhpUY9hCAAMKDHOhJgMGlJ6JsDciNbEOP4xAoTQDhURpdPgUZXPKJtdVTcsNKDHsIQADhQQ70JMDg0hNRtgbkRrahx3EIlCaA8CiNLp+CDC75xNrqKblhJYY9BCCA8CAHehJgcOmJKFsDciPb0OM4BEoTQHiURpdPQQaXfGJt9ZTcsBLDHgIQQHiQA58g8E0RuUdEbheRzSLiBpe1IvJnInKHiPw53CDg5QYwIAABCIQSQHiEksrIbqGITIjIIRGZFJGlIrJXRIZFZIGIjIjIwYx44GpnAsx4kB0QgICVAMLDSiwTe53ZuE1E5p4QGSpGjonIQyLyp5kwwM3eBBAevRlhAQEIzCSA8CAj2hJQofELEfm097e/EpHPM9tBxngEEB6kAwQgYCWA8LASy8heZz10v8cpIvLRiX0dzHZklAABriI8AiBhAgEIzCCA8CAhOhLwZz2Y7SBR2hFAeJAXEICAlQDCw0osM3u314O9HZkFPtBdhEcgKMwgAIFpAggPkqErAZ31eFpErmVvB5nShgDCg7SAAASsBBAeVmId7JcNDQ2tXrx48ejBgwfPmpycnBepXqqJTGB4ePjowoUL9+zfv398ampqm4jsivyInKpDeFSLNv1GNX4DK02/ERU1wqMqzgULFvzg2LFj165Zs2bOqlWrTlmxYoUsWrSoarWU7xOBAwcOyI4dO+Sll176aMuWLcfnzp379KFDh27o0+NSrxbhUTLC9Bslwc1SMfqNqOARHhVwnj4yMvL6pZdeeuamTZvmIzYqkJylotqZjI2NHX755Zffn5iYuFhEfj5LTWnqYxEe9sjRb9iZ1aoE/UblcCA8yiIcGRn5ydjY2PL169eXrYJyNSGwYcMG2bRp086JiYkv1qRJTWkGwsMYKfoNI7Aam9NvlA4OwqMMOp0mHR0dXb1169b5ZcpTpn4ErrnmmsPj4+PbWHYxxQbhYcBFv2GA1RBT+o1SgUJ4lMC2bN68eT/+8MMPh1leKUGvpkV0+vS0006bPHr06JfYcBocJIRHMCqh3whn1RhL+o1SoUJ4WLENDQ1tWLt27bc3btyoN3rySYjAunXrPtq8efMDU1NTrJ+FxRXhEcZJ6DcCQTXQjH7DHDSEhxWZrtGOj48vv/DCC61Fsa85ge3bt8vo6Ch7PcLjhPAIZEW/EQiqgWb0G+agITysyIaHh4/s3bt3HsssVnL1t9dp06VLlx6dnJw8tf6trUULER6BYaDfCATVQDP6DXPQEB5mZCLHjx9XbnxSJDBnzhx1q/UvPj0JIDx6Ipo2oN8IZ9U4S/oNU8gQHiZcHxvTgZSA1pQidCCmSCE8wnHRb4Szapwl/YYpZAgPEy6ERwlczSpCB2KKF8IjHFdU4fH222/LTTfdJM8//7wsW7asZyvuvfdeOfvss+XKK6/sadvOYNeuXfLd735XHnvsMdm5c6ds27ZNHn74YTn11P6tSk5MTLTae8cdd8jKlSs7tttv28jISCn/qhai3zARRHiYcCE8SuBqVhE6EFO8EB7huKIJjyNHjshdd93VerK+oiFETMQUHoMa3BEe4cnVMEuER4mARetASjybIn0mgPAwAUZ4hOOK1m/oN/ynnnpKvva1r8n3v//91iyELwZUZNx5552tlr311luyZ88eueqqq1p/fuaZZ+Sss86aMWPx7LPPyu7du1szC26wf+2111r299xzT+vn7WY81qxZI1dffXXr3Ufuc/3117dmQg4fPtwSRO3q+cY3vtEy1981fbbfdhVVt956qzz55JOidWnb3YyHzvKcf/75089S35YvXz79nEsuuaRV3759++SKK65otcv9TJ/h1+1YhIi2kBDTb4RQmrZBeJhwMeNRAlezitCBmOKF8AjHFU146OCqHx00VWRcdNFF00sRvojwxcITTzwxvdSiA7i/VOLK3Hbbba1B/4ILLmjVreVVJDzyyCOt5/VaanGzKpdddlnXelQUPP74422XT7SODz74oCVe3nvvvZbQUIGxZMmS6bbo0pK2+c0332zZvf/++9Ntc1xWr149zcfV9+KLL84QWN/5znfkvvvumyF8wsM505J+w0QO4WHChfAogatZRehATPFCeITjiiI83DLLdddd19rboSLijTfeaM0KuG/0OugW90T4Sy2dhIfW4X909uPmm29uDeq9hIfWr59iHfqzYj1OzBT3phTb380f3wdfeOhshxNIOsvhi6d33313WniEhy3Mkn4jjNMJK4SHCRfCowSuZhWhAzHFC+ERjiuK8NCB1C0juEe75QT3bb/dZsxQ4VFcztA9JLqBtZvw8Gcf3GbTkHqKe0WKezqKwsNfQtL2uGUdX3joxle1c0s4vuhRoVNchuq2aTU8tB8vG3EMP5gYwiMY1UnDKB1IiedSZAAE6EBMkBEe4bii9BvtZhaKSxzWGQ9X54033jjjFEnIjIcuhxRPuBQFRKd6isKj24yHYvYFRZkZD3+GpShIwsPY3pJ+w0QQ4WHCVWHGo6jW3XN1s1dxg5P/i6trm27qsDiNWKLtSRQJ3e1exlk6EBM1hEc4rsrCo1Pe+zMODz30UKtFbkOoW9Z44YUXZuzxcEdxtX/R/ke/+ReFh9b74IMPdpzxuPzyy+WBBx74xAbRYjs71dPudIzvi7/Hwxce8+fPb+0h0Y9lj4eycUeKtY3s8QhP3siWCI8SQEt1IN3WQItt6NTB1OG8egle0YsgPKIjLVshwiOcXKl+w69ev+X73/rd37nlF92wec4550yfCtG/142ZKip0QNeTLe6LjvsipMs0+s+hQ4daYsXZaVk9WaKDv86g+F+A3D0eX/7yl+XrX//6DAJu2efVV1+dPknTqZ52wqN4quWzn/2srFq1aoZfuvxz9913y3PPPdc60aMf9+Wt26mW4okdxyY8hJ0t+cJioojwMOGqOOPhvom0e2anY2TuF16Ptd1yyy2t42nul1s7gOLxMu1ktINS+71798pXvvKVT1z04/8C+sfN2h1Xc/XpdKp2AvoNSMtoJ6XfmvTImuvM3PSnb+fWWotH2fxfen82yB3fKzLqdszOX/f2/SkRW9ZqbdAQHuG8KguP8EdhOWgCCA8TcYSHCVcfhUe3Y2Ttllp02cXfHV6coux0q2FxHdUdpdNp0271uWNt7huVnq/Xsv5mLieE/G9VTmwV/XPtUz/cGrHa6sVIbse+H5tOfNw5frehzrcrc6siHYjpNwLhEY4L4RHOqnGW9BumkCE8TLgqCg93qY97ptsxfuaZZ7amR92mMF8chO7x8Ddb6fRouylZfW7ock23+vwd8sWLhfznur/TtVX9edE/vS+geJlRt9mgdnzUvt0zi5cqhcaZDiSUVMsO4RGOC+ERzqpxlvQbppAhPEy4KgoP9+2/+Mxux8i6CY9Ox8va7TR3z+y0TuwGcF8cueNqxfq6CQ9/h7sTHm6ZyD/m59fhryv32myrSz++MNN2+8tN+mcn6ELeYVGMBR2I6TcC4RGOC+ERzqpxlvQbppAhPEy4+iQ8uh0j6yQ8iufVizMUnV7i1GnGoyhIutUXOuPh6tTrnTvNePgnejpdGNTrmF3MF1bRgZh+IxAe4bgQHuGsGmdJv2EKGcLDhKtPwkOr7XSMLER4FI+XdZvxaHfUTa8e9o/G9aqvm/Bwe0F0ZsI/ydNpj4d/m2DxVkY/Np34FPd4qJ0KkeI7IELjTAcSSqplh/AIx5W18Oh2C2k4wvaW3WZxXYl+Pl+fQb9hiiLCw4SrovAo7vHQ6twpjk7HyHzhofZuhsDNIuhRteLxsl6vrW53CsSJjZD6ugkPd7xNj7q5pRrd5NnpVEvoi5s68VGB4/tTZZmFDsT824DwOInsmyLyFyJysANFhIe3j82caV0KIDxi0hxIXQiPEpiz7kC68Sq+A6IE21kvwjcXUwgQHidxHRaRT4nIAyf+KQqQ6P2GWzY977zzZN26dZ/Y2+Qfj3dfArS5upH9wIEDrYvB9Fi7ftw+qW5vc3VH4N1zP/e5z7Xu+tCPfzze37PVaQN9pyPwoV9E/PL65U19dbOc3fxud6urKeM7GNNvmCgiPEy4Ksx4lHhO44ogPBoXsqoNRnicJKhXaW448b4OfXGHXiGqIsQJkL4ID31vy+jo6PTlX/4bW93xeHdq7owzzhD3Blr9f93sXbw6vPjmW/9Nse4IvLqsz/3Wt771iTfAFk/UueVW91wd+LsdgQ95g6xbLvbfQOuEh3/NQDu/ER5Vf+WjlEd4lMAYvQMp0QaK9IkA31xMYBEeM3HtE5GREz86ckKEOAHyr8ePK654H//Nq3qCyxcRunfKiRBd6nRfCu6//365/fbbRY+y67Jtp3eWdNrQreXOPffcGXf+dPvC4e4J8oWHEuh0BF5vPN29e3fbt9w6csUN8v6ftXw3vxEe8fKvQk0IjxLwEB4loDWlyAnh0ZTm0s76EZgSkSGvWZMi8qKI/Kd+CA//FfBF4aFXpPsfXUYpnjDTv/eXLdySzOHDh2e8MM6JBX3XiQoP/7m+8FA7XcpxSzD6Z10KKQqPbkfge71Btrinoyg8Qv2OmTp8YTHRRHiYcH1sjPAoAa0pRehATJFixqNGMx7+DIh/WsxvYq/THe1mKPy7c9yMRyfhoUsl/oxDpxmPkCPwnWZjes14tJsx6eW3KevbGNNvmAgiPEy4EB4lcDWrCB2IKV4Ij5O4xkTkvtnY4+H2WvhHzt9///0ZyyHuOLtbanFLDsVBPHSPR4jwcLMmKly67fHwj8A/8cQTPd8g60SEWy5S39rt8dDlp05+m7I8wJh+IwDSSROEhwnXAIVH6BtYQ69AL+Fn65e509XrZeqzlHHTrfreFv1ce+21M96Q2e7Nlpb6O9nSgZgoIjxO4pq1Uy3udEnxBYn+6Q73d+7YvL/XwT+FEnIEvtjn+EstTmy4l1muWbNGXnnlFWkneHSDqr5k0j8CH/oGWX95aOPGja3lovvuu0+0Xwj125TpPYzpN0w0ER4mXAiPErjsRTpdJNZPkeVaSQdiihfC4ySugd/jMYjfB1M2ZGxMv2EKPsLDhKvPwqPbq9/bvbLeHUtz3y70m4seJ3PfJLqdyW/3ThR1z3o+vvgGWPft57Of/aw8+OCDEnovgB7908/U1JToUb8f/vCHrT+//vrr8sILL7ReMOdfpsaMR4nMjV8E4RHONPreMIRHOPx+WyI8TIQRHiZcfRYenV79rgNup1fW61quW2/V5ukROf98uzuH36/z8XoXgP9xAskJm+K16WqrZdSueC/A448/LsWXwJ1zzjnTb+5FeJTI1v4WQXiE840uPMIfjWW/CSA8TIQRHiZcfRQe3V6EpoNxcXB3u8J94aGzHf6mr5Bd7n69vXaLtzsf//DDD4s/69HpqFvxDbW+v0Vh5f8dwqNEhg6uCMIjnDXCI5xV4ywRHqaQITxMuPooPIqbSYtCxD/brs1wm8B84VF8Y23xOFo/zscXX8ZWvEzIiRknPHRZyP/ozEjxXgCER4msnJ0iCI9w7giPcFaNs0R4mEKG8DDh6qPw6PXqd/90iT+4h8546NEy94l5Pr7Irzjj4f786KOPir4kT2dk/LZo+eJMC8KjRFbOThGERzh3hEc4q8ZZIjxMIUN4mHD1UXho1Z1e/a5/54RH8ZX1oXs8Hnroob6cj2+31KK3ErqXRnXa4+E2seq+juLeDYRHiaycnSIIj3DuCI82rPp9sVd4eKpZIjxM/BAeJlx9Fh6dXv3u9jm0e2W9Nkk3lDrh0ulUS7/OxxdPl+gMx2OPPdZqz3PPPTe9JKT7QDq9eZIZjxJZWI8iCI/wOCA8wlk1zhLhYQoZwsOEq8/Co0Rbalek6W+opQMxpRTCIxxXrYVHceah2/4w3a+lJ9O6XSSmXzT8i8ncJWHujbEHDhyQ559/fsZxed1E7x/nL16IFo568Jb0GybmCA8TLoRHT1wIj56IUjJAeIRHs7HCQ2dR3Sk6dfeuu+4Sd6Nwp6vT33vvvRm3HrslV3d1ut7Vo+LFFzzuXqJ21wEU7wsKxz4YS4SHiTPCw4QL4VECV7OK0IGY4oXwCMeVhPDwBUCvGQ8fTfFlce49K8Vj9Z2uAyhuSA/HPhhL+g0TZ4SHCRfCowSuZhWhAzHFC+ERjquxwkMHfX/ZxF0O2E14KJZbb71VdF+a++gSjf+yuOJlgWrnn97rdPouHPngLOk3TKwRHiZcCI8SuJpVhA7EFC+ERziuRgkP//JBf7ah2wyFfypPb0r2Lxwszni4l9Qx4xGeQAlZIjxKBLPWHUgJfyjiEUB4mNIB4RGOq9b9hhMAbu+FCgV915JuAH333Xdl9+7d03sy/D0e+l4oPRLvTt4pDj1i7wsP98ZaneHoNuPBHo/wZGq4JcKjRABr3YGU8IciCI+yOYDwCCdX+36j+Kr5d955p3XhnzuJ4pZN/BdMuiUYPbVy4403im4qVeHhxIZ7geWaNWvklVdekfvvv19uv/321vukikstnGoJT6aGWyI8SgSw9h1ICZ8ocoIAMx6mVEB4hOOi3whn1ThL+g1TyBAeJlwfG9OBlIDWlCJ0IKZIITzCcdFvhLNqnCX9hilkCA8TLoRHCVzNKkIHYooXwiMcF8IjnFXjLOk3TCFDeJhwicjw8PCRvXv3zlu0aJG1KPY1J6C3KS5duvTo5OTkqTVval2ah/AIjAT9RiCoBprRb5iDhvCwIhsZGfnJ+Pj48gsvvNBaFPuaE9i+fbuMjo7unJiY+GLNm1qX5iE8AiNBvxEIqoFm9BvmoCE8rMiGhoY2rF279tsbN248xVoW+3oTWLdu3UebN29+YGpqan29W1qb1iE8AkNBvxEIqoFm9BvmoCE8zMhEls2bN+/HH3744TDLLSXo1bSITpeedtppk0ePHv2SiOyqaTPr1iyER3hE6DfCWTXGkn6jVKgQHmWwLViw4Aejo6Ort27dOr9MecrUj8A111xzeHx8fNuhQ4duqF/ratsihIchNPQbBlgNMaXfKBUohEcpbCKia7ZjY2PL169nVr4sw7qU27Bhg2zatIm9HfaAIDyMzOg3jMBqbE6/UTo4CI/S6EROHxkZef3SSy89c9OmTfNZdqlAcpaK6jTp2NjY4Zdffvn9iYmJi0Xk57PUlKY+FuFhjxz9hp1ZrUrQb1QOB8KjKkKdPj127Ni1a9asmbNq1apT9OpgREhVqv0rr53Gjh075KWXXvpoy5Ytx+fOnfs0yyuleSM8SqKj3ygJbpaK0W9EBY/wiIRz2dDQ0OrFixePHjx48KzJycl5keqlmsgEhoeHjy5cuHDP/v37x6empraxkbQSYIRHJXxCv1GN38BK029ERY3wiIqTyiCQFwGER17xtnhLblho5WWL8Mgr3ngLgagEGFyi4kyqMnIjqXBGdQbhERUnlUEgLwIMLnnF2+ItuWGhlZctwiOveOMtBKISYHCJijOpysiNpMIZ1RmER1ScVAaBvAgwuOQVb4u35IaFVl62CI+84o23EIhKgMElKs6kKiM3kgpnVGcQHlFxUhkE8iLA4JJXvC3ekhsWWnnZIjzyijfeQiAqAQaXqDiTqozcSCqcUZ1BeETFSWUQyIsAg0te8bZ4S25YaOVli/DIK954C4GoBBhcouJMqjJyI6lwRnUG4REVJ5VBIC8CDC55xdviLblhoZWXLcIjr3jjLQSiEmBwiYozqcrIjaTCGdUZhEdUnFQGgbwIMLjkFW+Lt+SGhVZetgiPvOKNtxCISoDBJSrOpCojN5IKZ1RnEB5RcVIZBPIiwOCSV7wt3pIbFlp52SI88oo33kIgKgEGl6g4k6qM3EgqnFGdQXhExUllEMiLAINLXvG2eEtuWGjlZYvwyCveeAuBqAQYXKLiTKoyciOpcEZ1BuERFSeVQSAvAgwuecXb4i25YaGVly3CI6944y0EohJgcImKM6nKyI2kwhnVGYRHVJxUBoG8CDC45BVvi7fkhoVWXrYIj7zijbcQiEqAwSUqzqQqIzeSCmdUZxAeUXFSGQTyIsDgkle8Ld6SGxZaedkiPPKKN95CICoBBpeoOJOqjNxIKpxRnUF4RMVJZRDIiwCDS17xtnhLblho5WWL8Mgr3ngLgagEGFyi4kyqMnIjqXBGdQbhERUnlUEgLwIMLnnF2+ItuWGhlZctwiOveOMtBKISYHCJijOpysiNpMIZ1RmER1ScVAaBvAgwuOQVb4u35IaFVl62CI+84o23EIhKgMElKs6kKiM3kgpnVGcQHlFxUhkE8iLA4JJXvC3ekhsWWnnZIjzyijfeQiAqAQaXqDiTqozcSCqcUZ1BeETFSWUQyIsAg0te8bZ4S25YaOVli/DIK954C4GoBBhcouJMqjJyI6lwRnUG4REVZ5qV/a2I/G6aruFVRQJLRGRfxTooniaB3SLy5TRdw6uKBBAeFQHmUFyT5PM5OIqPZgK/IDfMzHIqgCjNKdrhviI8wllla8mUabah7+k4udETEQYQgECBAMKDlOhJgMGlJ6JsDciNbEOP4xAoTQDhURpdPgUZXPKJtdVTcsNKDHsIQADhQQ70JMDg0hNRtgbkRrahx3EIlCaA8CiNLp+CDC75xNrqKblhJYY9BCCA8CAHehJgcOmJKFsDciPb0OM4BEoTQHiURpdPQQaXfGJt9ZTcsBLDHgIQQHiQAz0JMLj0RJStAbmRbehxHAKlCSA8SqPLpyCDSz6xtnpKbliJYQ8BCCA8yIGeBBhceiLK1oDcyDb0OA6B0gQQHqXR5VOQwSWfWFs9JTesxLCHAAQQHuRATwIMLj0RZWtAbmQbehyHQGkCCI/S6PIpyOCST6ytnpIbVmLYQwACCA9yoCcBBpeeiLI1IDeyDT2OQ6A0AYRHaXT5FGRwySfWVk/JDSsx7CEAAYQHOdCTAINLT0TZGpAb2YYexyFQmgDCozS6fAoyuOQTa6un5IaVGPYQgADCgxzoSYDBpSeibA3IjWxDj+MQKE0A4VEaXT4FGVzyibXVU3LDSgx7CEAA4UEO9CTA4NITUbYG5Ea2ocdxCJQmgPAojS6fggwu+cTa6im5YSWGPQQggPAgB3oSYHDpiShbA3Ij29DjOARKE0B4lEaXT0EGl3xibfWU3LASwx4CEEB4kAM9CTC49ESUrQG5kW3ocRwCpQkgPEqjy6cgg0s+sbZ6Sm5YiWEPAQggPMiBTxD4pojcIyK3i8hmEXGDy1oR+TMRuUNE/hxuEPByAxgQgAAEQgkgPEJJZWS3UEQmROSQiEyKyFIR2SsiwyKyQERGRORgRjxwtTMBZjzIDghAwEoA4WEllom9zmzcJiJzT4gMFSPHROQhEfnTTBjgZm8CCI/ejLCAAARmEkB4kBFtCajQ+IWIfNr721+JyOeZ7SBjPAIID9IBAhCwEkB4WIllZK+zHrrf4xQR+ejEvg5mOzJKgABXER4BkDCBAARmEEB4kBAdCfizHsx2kCjtCCA8yAsIQMBKAOFhJZaZvdvrwd6OzAIf6C7CIxAUZhCAwDQBhAfJ0JWAzno8LSLXsreDTGlDAOFBWkAAAlYCCA8rsQ72y4aGhlYvXrx49ODBg2dNTk7Oi1Qv1UQmMDw8fHThwoV79u/fPz41NbVNRHZFfkRO1SE8coo2vkIgDgGER1WOCxYs+MGxY8euXbNmzZxVq1adsmLFClm0aFHVainfJwIHDhyQHTt2yEsvvfTRli1bjs+dO/fpQ4cO3dCnx6VeLcIj9QjjHwTiE0B4VGB6+sjIyOuXXnrpmZs2bZqP2KhAcpaKqggZGxs7/PLLL78/MTFxsYj8fJaa0tTHIjyaGjnaDYHZI4DwKMt+ZGTkJ2NjY8vXr19ftgrK1YTAhg0bZNOmTTsnJia+WJMmNaUZCI+mRIp2QqA+BBAeZWKhyyujo6Ort27dOr9MecrUj8A111xzeHx8fBvLLqbYIDxMuDCGAATcO57m8LInUzIsmzdv3o8//PDDYZZXTNxqbazLLqeddtrk0aNHv8SG0+BQITyCUWEIAQicIMCMhzUVhoaGNqxdu/bbGzdu1Bs9+SREYN26dR9t3rz5gampKdbPwuKK8AjjhBUEIHCSAMLDmg26t2N8fHz5hRdeaC2Kfc0JbN++XUZHR9nrER4nhEc4KywhAIGPCSA8rJkwPDx8ZO/evfNYZrGSq7+9LrcsXbr06OTk5Kn1b20tWojwqEUYaAQEGkUA4VEiXMePH1dufFIkMGeObnmS1r/49CSA8OiJCAMIQKBAAOFRIiUQHiWgNaUIwsMUKYSHCRfGEIAASy3lcgDhUY5bI0ohPExhQniYcGEMAQggPMrlAMKjHLdGlEJ4mMKE8DDhwhgCEEB4lMsBhEc5bo0ohfAwhQnhYcKFMQQggPAolwMIj3LcGlEK4WEKE8LDhAtjCEAA4VEuBxAe5bg1ohTCwxQmhIcJF8YQgADCo1wOIDzKcWtEKYSHKUwIDxMujCEAAYRHuRxAeJTj1ohSCA9TmBAeJlwYQwACCI9yORBFeNx7772tp99xxx0zWuF+rj88++yz5corryzXyg6ltH6t97LLLpNbb71VVq9eLStXroz6jGJlb7/9tuhzn332WRkZGen4LNe22D5bnEN4WGh9fPWxqQTGEIBA7gS4QKxEBkQRHu0G44mJiZbQUDHSLzEwG4M7wqNEljWjCMKjGXGilRCoEwGER4loRBEe7USGP0A/8cQT0zMe+vPzzz+/1dRLLrmkNXMwf/78GTMWWt/NN98s3/3ud2XZsmXil9Fyb731VkvMtJvx2LNnj1x11VUzUDzzzDMtEdStnv/9v/+3PP/88+Js/Qp27dolV1xxhezYsUPuueeeVj1+u5988smW+fXXXy8PP/ywvPjii9NtcPVpW++8SJCo9gAAHOhJREFU886Wnf+Mdjy6zaRYYsyMh4UWMx4mWhhDAAJKAOFRIg+iCA99bnG5xZ+NcP//+7//+zMEhQ7e+ikulfjCQ//+G9/4hjzyyCMtEaJl3nzzzdYA/9BDD3VdarHU88EHH7TqPPXUme9Uc6JKl3FUvKgvTniooNKPzuoUxZfvv7Z527Ztrbbv27evJWIef/xxWb58eVsesZZnEB6m3whmPEy4MIYABBAe5XIgmvDQwVgHVx28Dx8+PGNA7SQ8XJOPHDnSdcbDd81/Tjfh0Wupp1iPExBFjDrboTMvjz32WGtPR/HPnXxoJ7ycoHAi7cYbb5zBqVwIO5dCeJiIIjxMuDCGAAQQHuVyIJrw8GcX3n333elZCZ1B8Adhf9nCLU1o0/3NocWlFn+ZQm1duU7CwwmZCy64YMaG1l71tJtpKO7p8IWHm73QJRj36bQM5LdFZz52797dmilpx6M461IutCIIDxM5hIcJF8YQgADCo1wORBMebrA/55xz5L333ptxwqTTJlA3AN92220zhIcOxm55RQd3/xRJyIxHu+cVBUS7etoJj04zHip69DlOUBRnbUJmPIqngHxBUi6cM0shPEwUER4mXBhDAAIIj3I5EE146ON14NSNnW7TqNsk6Qbhc889d8ayRXGPxxlnnNGaBdCfP/jgg63Nnr7wcJtQ9Vmd9ni88cYbLRLFQd0XHp3qaSc8irMnbo/HU089NUN4uE2ixRkPrbPTHo8lS5a05cEej3LJXLEUwqMiQIpDIEMCbC4tEfSowsMtG4yOjs4Y+IsbLd2pE7dkoksL/pLDxo0b5Z133mkNymeeeWZrNkRPjqxYsULuvvtuee6551p7LtxpGbc59fLLL5cXXnihZet/9CSKm1XpVk+nAb/YNv3zfffdJzt37pw+oaPP0I+7r8SJsF6nWpydlvV5lIjlJ4ow42GiiPAw4cIYAhBgxqNcDkQVHuWaQKl+EUB4mMgiPEy4MIYABBAe5XIA4VGOWyNKITxMYUJ4mHBhDAEIIDzK5QDCoxy3RpRCeJjChPAw4cIYAhBAeJTLAYRHOW6NKIXwMIUJ4WHChTEEIIDwKJcDCI9y3BpRCuFhChPCw4QLYwhAAOFRLgcQHuW4NaIUwsMUJoSHCRfGEIAAwqNcDtRaeFR9+6x/+ZcefXVXule9GTT0DbXlQhKvFMLDxBLhYcKFMQQggPAolwPZCI9Yb3xVzAiPcslW81IIj5oHiOZBoIYEuECsRFAGKjz8y7L0MjC9mVTfOKsf/z0qevun/3p7vYTrrLPOmjFj4V8v7l4I99prr7Xq0su83HtQ3Ave3IzHmjVr5Oqrr2694t593MVd+nI7vUSsWI/a+ZeIaf3uDbUqaPxX2/uXgPXzlfchsWbGI4TStA3Cw4QLYwhAgBmPcjkwMOFRnCVwb2h1V6T7L01zYsHdTKpiwH+3ii6VFN/z4t6Z4r/nRZEUhYdete4vtbjlHHf7abt69GpzbcPq1atb/3XXphdfc6/vqdFbVvXq9+KbZ9318LGuQw8JN8IjhBLCw0QJYwhAwCfAjEeJfBiY8Ci2rdML4nw7f49HJ+FRfCeL/2bbXsLDFz/F9nWqR2c4uu0dcQLr0UcflTvvvLMlfNysTon4VCqC8DDhY8bDhAtjCECAGY9yOTAw4eFetua/R0WXLHRmQGcBVECsXLlyhhehwsNf0tAK3DJON+GhwufNN99svWzOzYB0qqf4hlxfeLz66qsz6vH/TstdccUVrWWd2O9hCQk3wiOEEjMeJkoYQwACzHhUzIGBCY/iQF91xsPNVhSFS8iMx3vvvfeJEy5un4gTQFVnPNQ/f0Nr7Ffeh8Qd4RFCCeFhooQxBCCA8KiYA7MiPNwmTp3h0IHeX/Lw92jom2bd2151NuKmm25qbUh1ey60fFF46AD/4IMPtuzazXjoG2wfeOCB1h4RXxgUhYdfj3tDrtv/EbLHQ5/j9pfoc9jjUTFT+1+cpZb+M+YJEEiNAHs8SkR0YMLDP3lyySWXiJ4ueeWVV1pLHfrRTZluGUZPtaio6PRqeS2v/xw6dKglXPzTMlqHzmjoRlAVKMXNpV/+8pfl61//+gxUWpfWocsmV111Vevv/Hq0Lf6plo0bN7b+fN9997XES6dTLf185X1IrJnxCKHEjIeJEsYQgAAzHhVzYGDCo2I7KV6CAMLDBI0ZDxMujCEAATaXlssBhEc5bo0ohfAwhQnhYcKFMQQggPAolwMIj3LcGlEK4WEKE8LDhAtjCEAA4VEuBxAe5bg1ohTCwxQmhIcJF8YQgADCo1wOIDzKcWtEKYSHKUwIDxMujCEAAYRHuRxAeJTj1ohSCA9TmBAeJlwYQwACCI9yOYDwKMetEaUQHqYwITxMuDCGAAQQHuVyAOFRjlsjSiE8TGFCeJhwYQwBCCA8yuUAwqMct0aUQniYwoTwMOHCGAIQQHiUywGERzlujSiF8DCFCeFhwoUxBCCA8CiRA8PDw0f27t07b9GiRSVKU6TOBA4cOCBLly49Ojk5eWqd21mjtiE8ahQMmgKBhhDgXS3WQI2MjPxkfHx8+YUXXmgtin3NCWzfvl1GR0d3TkxMfLHmTa1L8xAedYkE7YBAcwggPKyxGhoa2rB27dpvb9y48RRrWezrTWDdunUfbd68+YGpqan19W5pbVqH8KhNKGgIBBpDAOFRIlTL5s2b9+MPP/xwmOWWEvRqWkSXWU477bTJo0ePfklEdtW0mXVrFsKjbhGhPRCoPwGER5kYLViw4Aejo6Ort27dOr9MecrUj8A111xzeHx8fNuhQ4duqF/ratsihEdtQ0PDIFBbAgiPsqHRvR5jY2PL169nVr4sw7qU27Bhg2zatIm9HfaAIDzszCgBgdwJIDwqZMDpIyMjr1966aVnbtq0aT7LLhVIzlJRXV4ZGxs7/PLLL78/MTFxsYj8fJaa0tTHIjyaGjnaDYHZI4DwqMpel12OHTt27Zo1a+asWrXqlBUrVggipCrV/pVXsbFjxw556aWXPtqyZcvxuXPnPs3ySmneCI/S6CgIgWwJIDwihX7Z0NDQ6sWLF48ePHjwrMnJyXmR6qWayASGh4ePLly4cM/+/fvHp6amtrGRtBJghEclfBSGQJYEEB5Zht3mNIOLjVdO1uRGTtHGVwjEIYDwiMMx6VoYXJIObyXnyI1K+CgMgSwJIDyyDLvNaQYXG6+crMmNnKKNrxCIQwDhEYdj0rUwuCQd3krOkRuV8FEYAlkSQHhkGXab0wwuNl45WZMbOUUbXyEQhwDCIw7HpGthcEk6vJWcIzcq4aMwBLIkgPDIMuw2pxlcbLxysiY3coo2vkIgDgGERxyOSdfC4JJ0eCs5R25UwkdhCGRJAOGRZdhtTjO42HjlZE1u5BRtfIVAHAIIjzgck66FwSXp8FZyjtyohI/CEMiSAMIjy7DbnGZwsfHKyZrcyCna+AqBOAQQHnE4Jl0Lg0vS4a3kHLlRCR+FIZAlAYRHlmG3Oc3gYuOVkzW5kVO08RUCcQggPOJwTLoWBpekw1vJOXKjEj4KQyBLAgiPLMNuc5rBxcYrJ2tyI6do4ysE4hBAeMThmHQtDC5Jh7eSc+RGJXwUhkCWBBAeWYbd5jSDi41XTtbkRk7RxlcIxCGA8IjDMelaGFySDm8l58iNSvgoDIEsCSA8sgy7zWkGFxuvnKzJjZyija8QiEMA4RGHY9K1MLgkHd5KzpEblfBRGAJZEkB4ZBl2m9MMLjZeOVmTGzlFG18hEIcAwiMOx6RrYXBJOryVnCM3KuGjMASyJIDwyDLsNqcZXGy8crImN3KKNr5CIA4BhEccjknXwuCSdHgrOUduVMJHYQhkSQDhkWXYbU4zuNh45WRNbuQUbXyFQBwCCI84HJOuhcEl6fBWco7cqISPwhDIkgDCI8uw25xmcLHxysma3Mgp2vgKgTgEEB5xOCZdC4NL0uGt5By5UQkfhSGQJQGER5ZhtznN4GLjlZM1uZFTtPEVAnEIIDzicEy6FgaXpMNbyTlyoxI+CkMgSwIIjyzDbnOawcXGKydrciOnaOMrBOIQQHjE4Zh0LQwuSYe3knPkRiV8FIZAlgQQHlmG3eY0g4uNV07W5EZO0cZXCMQhgPCIwzHpWhhckg5vJefIjUr4KAyBLAkgPLIMu81pBhcbr5ysyY2coo2vEIhDAOERh2PStTC4JB3eSs6RG5XwURgCWRJAeGQZdpvTDC42XjlZkxs5RRtfIRCHAMIjDseka2FwSTq8lZwjNyrhozAEsiSA8Mgy7DanGVxsvHKyJjdyija+QiAOAYRHHI5J18LgknR4KzlHblTCR2EIZEkA4ZFl2G1OM7jYeOVkTW7kFG18hUAcAgiPOByTroXBJenwVnKO3KiEj8IQyJIAwiPLsNucZnCx8crJmtzIKdr4CoE4BBAecTgmXQuDS9LhreQcuVEJH4UhkCUBhEeWYbc5zeBi45WTNbmRU7TxFQJxCCA84nBMuhYGl6TDW8k5cqMSPgpDIEsCCI8sw25zmsHFxisna3Ijp2jjKwTiEEB4xOGYdC0MLkmHt5Jz5EYlfBSGQJYEEB5Zht3mNIOLjVdO1uRGTtHGVwjEIYDwiMMx6VoYXJIObyXnyI1K+CgMgSwJIDyyDLvNaQYXG6+crMmNnKKNrxCIQwDhEYdj0rUwuCQd3krOkRuV8FEYAlkSQHhkGXab0wwuNl45WZMbOUUbXyEQhwDCIw7HpGthcEk6vJWcIzcq4aMwBLIkgPDIMuw2pxlcbLxysiY3coo2vkIgDgGERxyOSdfC4JJ0eCs5R25UwkdhCGRJAOGRZdhtTjO42HjlZE1u5BRtfIVAHAIIjzgck66FwSXp8FZyjtyohI/CEMiSAMIjy7DbnGZwsfHKyZrcyCna+AqBOAQQHnE4Jl0Lg0vS4a3kHLlRCR+FIZAlAYRHlmG3Oc3gYuOVkzW5kVO08RUCcQggPOJwTLoWBpekw1vJOXKjEj4KQyBLAgiPLMNuc5rBxcYrJ2tyI6do4ysE4hBAeMThmHQtDC5Jh7eSc+RGJXwUhkCWBBAeWYbd5jSDi41XTtbkRk7RxlcIxCGA8IjDMelaGFySDm8l58iNSvgoDIEsCSA8sgy7zWkGFxuvnKzJjZyija8QiEMA4RGHY9K1MLgkHd5KzpEblfBRGAJZEkB4ZBl2m9MMLjZeOVmTGzlFG18hEIcAwiMOx6RrYXBJOryVnCM3KuGjMASyJIDwyDLsNqcZXGy8crImN3KKNr5CIA4BhEccjknXwuCSdHgrOUduVMJHYQhkSQDhkWXYbU4zuNh45WRNbuQUbXyFQBwCCI84HJOuhcEl6fBWco7cqISPwhDIkgDCI8uw25xmcLHxysma3Mgp2vgKgTgEEB5xOCZdC4NL0uGt5By5UQkfhSGQJQGER5ZhtznN4GLjlZM1uZFTtPEVAnEIIDzicEy6FgaXpMNbyTlyoxI+CkMgSwIIjyzDbnOawcXGKydrciOnaOMrBOIQQHjE4Zh0LQwuSYe3knPkRiV8FIZAlgQQHlmG3eY0g4uNV07W5EZO0cZXCMQhgPCIwzHpWhhckg5vJefIjUr4KAyBLAkgPLIMu81pBhcbr5ysyY2coo2vEIhDAOERh2PStTC4JB3eSs6RG5XwURgCWRJAeGQZdpvTDC42XjlZkxs5RRtfIRCHAMIjDseka2FwSTq8lZwjNyrhozAEsiSA8Mgy7DanGVxsvHKyJjdyija+QiAOAYRHHI5J18LgknR4KzlHblTCR2EIZEkA4ZFl2G1OM7jYeOVkTW7kFG18hUAcAgiPOByTroXBJenwVnKO3KiEj8IQyJIAwiPLsNucZnCx8crJmtzIKdr4CoE4BBAecTgmVcs3ReQeEbldRDaLiBtc1orIn4nIHSLy50l5jDNlCSA8ypKjHATyJYDwyDf2HT1fKCITInJIRCZFZKmI7BWRYRFZICIjInIQbhDwRCkwIAABCIQSQHiEksrMTmc2bhORuSdEhoqRYyLykIj8aWYscLczAWY8yA4IQMBKAOFhJZaJvQqNX4jIpz1/fyUin2e2I5MMCHMT4RHGCSsIQOAkAYQH2dCRgM566H6PU0TkoxP7OpjtIGF8AggP8gECELASQHhYiWVk7896MNuRUeANriI8DLAwhQAEWgQQHiRCVwJurwd7O0iUdgQQHuQFBCBgJYDwsBLLzF5nPZ4WkWvZ25FZ5MPcRXiEccIKAhA4SQDhQTZMEzhTRH5v8eLFFw8NDf2Ho0ePnn706NEFv/71rz/1qU996tfz5s07NG/evJ9PTU39r/37978uIn8nIu/DL2sCCI+sw4/zEChFAOFRCltahb6+ZMmSW44cObL8q1/96ke/93u/t/BLX/qS/OZv/qYsWbJEPv3pT8uvfvUr2bdvn/zsZz+TH//4x/J3f/d3B3/0ox+dcuqpp+7ct2/foyLy39JCgjeBBBAegaAwgwAEpgkgPDJOhhsWLlx47+/+7u+ecsstt3zuD//wD80o/uZv/kYeffTRf/mf//N/fnTw4EG90fQH5koo0GQCCI8mR4+2Q2B2CCA8Zof7rD71PyxZsuS/LVu27Kzvfe97i84///zKjXnrrbfkv/yX/3Jg165de/bt2/d1EflflSulgiYQQHg0IUq0EQL1IoDwqFc8+t4aFQVPPf7443LjjTdGf9gTTzwhN910k9Z7Hcsv0fHWsUKERx2jQpsgUG8CCI96xydq675z+umn/8lf//VfLzzvvPOiVuxX9s4778gf/dEfHfz5z3/+fRG5r28PouI6EEB41CEKtAECzSKA8GhWvEq39jv/7t/9u2+98cYbnzvjjDNKVxJa8IMPPpCLLrroX/7P//k/DyI+Qqk10g7h0ciw0WgIzCoBhMes4h/Mw79++umnb3rnnXcWDkJ0OJdUfJx33nk68zHGsstgAj0LT0F4zAJ0HgmBhhNAeDQ8gL2a/x9E5L3/8T/+h4qAXrbR/16XXb785S9rveew4TQ63jpUiPCoQxRoAwSaRQDh0ax42Vq7ZMmS/3X33Xf/Tj82koa2RDec3nXXXf+wb98+FUF80iKA8EgrnngDgUEQQHgMgvIsPeOGlStX/tlbb721yPL8t99+W/7qr/5KXnvtNfnnf/7n1uVheonYb/zGb8gll1wiX/va12TlypWWKuX8888/8Pbbb+ubbbnnw0Su9sYIj9qHiAZCoHYEEB61C0mkBi1cuPAXf/u3f7sk9J6OHTt2yM033yz634MHD3ZsxcKFC2XFihXy2GOPtf4b8tF7Pv7jf/yP+w4ePPj5EHtsGkMA4dGYUNFQCNSGAMKjNqGI25CvX3TRRRtff/31z4VU+5d/+Zdy9dVXh5jOsPnhD38of/zHfxxU7uKLL/6XN954Yx0bTYNwNcUI4dGUSNFOCNSHAMKjPrGI1xLd2/Ff/+t//Z2Qa9BVdKxZs0YOHz5sbsD8+fNly5YtQeJDr1f/z//5P7PXw0y51gUQHrUOD42DQC0JIDxqGZZqjTrzM5/5zK5Dhw7N61WNLqv8zu/8Ti+znn//D//wD0HLLgsWLDj6y1/+chlvte2JtCkGCI+mRIp2QqA+BBAe9YlFtJZ8/Y/+6I82vfjiiwt71XjBBReI7r+o+tF9JG+++WbPai677LKDf/3Xf829Hj1JNcYA4dGYUNFQCNSGAMKjNqGI1JDFixc/u2HDhq/1OkKrp1f+4A/+oOtG0tAm6YbTV155pedpFz1au379+r/av3//laF1Y1drAgiPWoeHxkGglgQQHrUMS4VGjYyM/H9/8zd/88Vep1n0ZW4qBGJ9VOjoy+e6fXR25Q//8A9/MjEx8e9jPZd6ZpUAwmNW8fNwCDSSAMKjkWHr0ujPfOYz+nr6nu9k+cIXviD/9E//FM393/qt35Kf/vSnXevTa9SXLVv2L7/85S9Nd4tEayQVxSaA8IhNlPogkD4BhEdqMf7Upz517Je//OWn9NKvbp958+a1LgeL9dHnHT16tGt1+rzPfOYzv/71r389N9ZzqWdWCSA8ZhU/D4dAIwkgPBoZtu6NPn78uMa1+2fOnDm9TMx/b3hu/IebW0uBCAQQHhEgUgUEMiOA8Egt4Mx4pBbRWvuD8Kh1eGgcBGpJAOFRy7BUaBR7PCrAo6iVAMLDSgx7CEAA4ZFaDnCqJbWI1tofhEetw0PjIFBLAgiPWoalQqO4x6MCPIpaCSA8rMSwhwAEEB4J5gA3lyYY1Jq6hPCoaWBoFgRqTADhUePglG0a72opS+7/b++OQeLI4jiO/08RVsigwqRZJcRGU+l5oBZaXFZRsNLWQsE0ggpHIMQQDpEQ4nFwBFRIE0ELW60ERfeu0MIV4mkVbTwOtcmAyhy4EJTjGRJIQuLMuPtm3uzXZpv33v+9z3/AH7vDDPP8ChA8/IoxHgEECB5xvAZ4O20cuxrJMxE8ItkWNoVApAUIHpFuT/DNDaRSqT/W1tbKvCwxNzcn/f39XoZ+NmZ2dlb6+vo8zWtraztLp9MPRWTG0wQGmSBA8DChS+wRgWgJEDyi1Y/c7cayrHdLS0v2de9s+VhxZ2dHhoeHRX26rvvNjagXwtXX18vU1NTVp5c/9Y6Wrq4ux3Xd217GM8YYAYKHMa1iowhERoDgEZlW5H4jgy0tLS/W19d9vRdFvbV2fn5elpeX5fDw8Oqx6upx6FVVVdLZ2Sm9vb3XvoX2y6O0traebmxsPBGRV7k/JiuGKEDwCBGf0ggYKkDwMLRxnrat7vUYHx//Ub05Nqw/9QbcsbGxvx3HaQhrD9TNmwDBI2+0LIxAbAUIHrFt7YeDqX/2bzY3N6WpqUn7UTOZjDQ3N6u6P4nItvYNUDDfAgSPfAuzPgLxEyB4xK+nX51oIJlMvsxkMlZlZaW24x4dHamw4x4fH//CDaXa2HUXInjoFqceAuYLEDzM76GnEzytqal5lE6ny3SEDxU6UqnU2f7+/u8i8tzTDhlkogDBw8SusWcEwhUgeITrr7X602Qy+XhhYcHK588u6ueVnp4e9U3Hb4QOrf0NoxjBIwx1aiJgtgDBw+z++d79gIi8np6elnzccKpuJB0aGlKbesDPK757Y+IEgoeJXWPPCIQrQPAI1z+U6g22bc/U1tbenZiYKPf6nI/v7VQ9p2N0dPR0b2/vH8dxVLjhRtJQWqu9KMFDOzkFETBegOBhfAuDH2DQsqxnjY2NJSMjI2Xd3d2+V1pcXJTJycmzra2t967r/spzOnwTmj6B4GF6B9k/AvoFCB76zSNXccC27ZHz8/N7HR0d79vb2626ujqprq4W27avHh6mHiLmOI4cHBzI7u6urK6uuisrKyWlpaVvHceZ5GeVyPVU14YIHrqkqYNAfAQIHvHp5Y1PckdE2isqKtqKiooastlsMpvN3rq4uCguLi6+SCQS/yUSiePLy8vtk5OTNRFZFZF/b1yVBUwWIHiY3D32jkA4AgSPcNypikAsBAgesWgjh0BAqwDBQys3xRCIlwDBI1795DQI6BAgeOhQpgYCMRUgeMS0sRwLgTwKEDzyiMvSCMRdgOAR9w5zPgRyL0DwyL0pKyJQMAIEj4JpNQdFIGcCBI+cUbIQAoUnQPAovJ5zYgRuKkDwuKkg8xEoYAGCRwE3n6MjEFCA4BEQjmkIICBC8OAqQAABvwIED79ijEcAgU8CBA8uBgQQ8CtA8PArxngEECB4cA0ggEBgAYJHYDomIoAA33hwDSCAgF8BgodfMcYjgADfeHANIIBAYAGCR2A6JiKAAN94cA0ggIBfAYKHXzHGI4AA33hwDSCAQGCBT8HjTxH5OfAyTEQAgUIUOBWR8kI8OGdGAIHAAn+JyP0fAk9nIgIIIIAAAggg4FPgfw1tdfxpbzAOAAAADmVYSWZNTQAqAAAACAAAAAAAAADSU5MAAAAASUVORK5CYII=;" vertex="1" parent="1">
          <mxGeometry x="20" y="20" width="542" height="722" as="geometry" />
        </mxCell>
      </root>
    </mxGraphModel>
  </diagram>
</mxfile>
